<mxfile host="app.diagrams.net" modified="2021-09-06T05:44:35.621Z" agent="5.0 (Windows NT 10.0; Win64; x64) AppleWebKit/537.36 (KHTML, like Gecko) Chrome/93.0.4577.63 Safari/537.36 Edg/93.0.961.38" etag="U5Vlspl0cQFVzksjRY7Y" version="15.0.6" type="github">
  <diagram id="C5RBs43oDa-KdzZeNtuy" name="Page-1">
    <mxGraphModel dx="1219" dy="550" grid="1" gridSize="10" guides="1" tooltips="1" connect="1" arrows="1" fold="1" page="1" pageScale="1" pageWidth="827" pageHeight="1169" math="0" shadow="0">
      <root>
        <mxCell id="WIyWlLk6GJQsqaUBKTNV-0" />
        <mxCell id="WIyWlLk6GJQsqaUBKTNV-1" parent="WIyWlLk6GJQsqaUBKTNV-0" />
        <mxCell id="4ZBZWQNhmEqmz6yO9Any-26" style="edgeStyle=orthogonalEdgeStyle;rounded=0;orthogonalLoop=1;jettySize=auto;html=1;exitX=0.75;exitY=1;exitDx=0;exitDy=0;entryX=0.164;entryY=0.033;entryDx=0;entryDy=0;entryPerimeter=0;" edge="1" parent="WIyWlLk6GJQsqaUBKTNV-1" source="WIyWlLk6GJQsqaUBKTNV-3" target="4ZBZWQNhmEqmz6yO9Any-2">
          <mxGeometry relative="1" as="geometry" />
        </mxCell>
        <mxCell id="WIyWlLk6GJQsqaUBKTNV-3" value="读取标准瓶瓶身图像" style="rounded=1;whiteSpace=wrap;html=1;fontSize=12;glass=0;strokeWidth=1;shadow=0;" parent="WIyWlLk6GJQsqaUBKTNV-1" vertex="1">
          <mxGeometry x="50" y="80" width="120" height="40" as="geometry" />
        </mxCell>
        <mxCell id="4ZBZWQNhmEqmz6yO9Any-16" style="edgeStyle=orthogonalEdgeStyle;rounded=0;orthogonalLoop=1;jettySize=auto;html=1;exitX=0.5;exitY=1;exitDx=0;exitDy=0;entryX=0.5;entryY=0;entryDx=0;entryDy=0;" edge="1" parent="WIyWlLk6GJQsqaUBKTNV-1" source="4ZBZWQNhmEqmz6yO9Any-0" target="WIyWlLk6GJQsqaUBKTNV-3">
          <mxGeometry relative="1" as="geometry" />
        </mxCell>
        <mxCell id="4ZBZWQNhmEqmz6yO9Any-0" value="初始化" style="shape=parallelogram;html=1;strokeWidth=2;perimeter=parallelogramPerimeter;whiteSpace=wrap;rounded=1;arcSize=12;size=0.23;" vertex="1" parent="WIyWlLk6GJQsqaUBKTNV-1">
          <mxGeometry x="70" y="20" width="80" height="40" as="geometry" />
        </mxCell>
        <mxCell id="4ZBZWQNhmEqmz6yO9Any-28" style="edgeStyle=orthogonalEdgeStyle;rounded=0;orthogonalLoop=1;jettySize=auto;html=1;exitX=0.25;exitY=1;exitDx=0;exitDy=0;entryX=0.25;entryY=0;entryDx=0;entryDy=0;" edge="1" parent="WIyWlLk6GJQsqaUBKTNV-1" source="4ZBZWQNhmEqmz6yO9Any-2" target="4ZBZWQNhmEqmz6yO9Any-4">
          <mxGeometry relative="1" as="geometry" />
        </mxCell>
        <mxCell id="4ZBZWQNhmEqmz6yO9Any-29" style="edgeStyle=orthogonalEdgeStyle;rounded=0;orthogonalLoop=1;jettySize=auto;html=1;exitX=0.75;exitY=1;exitDx=0;exitDy=0;entryX=0.75;entryY=0;entryDx=0;entryDy=0;" edge="1" parent="WIyWlLk6GJQsqaUBKTNV-1" source="4ZBZWQNhmEqmz6yO9Any-2" target="4ZBZWQNhmEqmz6yO9Any-4">
          <mxGeometry relative="1" as="geometry" />
        </mxCell>
        <mxCell id="4ZBZWQNhmEqmz6yO9Any-2" value="RGB图转为灰度图" style="rounded=1;whiteSpace=wrap;html=1;fontSize=12;glass=0;strokeWidth=1;shadow=0;" vertex="1" parent="WIyWlLk6GJQsqaUBKTNV-1">
          <mxGeometry x="120" y="140" width="120" height="40" as="geometry" />
        </mxCell>
        <mxCell id="4ZBZWQNhmEqmz6yO9Any-30" style="edgeStyle=orthogonalEdgeStyle;rounded=0;orthogonalLoop=1;jettySize=auto;html=1;exitX=0.25;exitY=1;exitDx=0;exitDy=0;entryX=0.25;entryY=0;entryDx=0;entryDy=0;" edge="1" parent="WIyWlLk6GJQsqaUBKTNV-1" source="4ZBZWQNhmEqmz6yO9Any-4" target="4ZBZWQNhmEqmz6yO9Any-6">
          <mxGeometry relative="1" as="geometry" />
        </mxCell>
        <mxCell id="4ZBZWQNhmEqmz6yO9Any-31" style="edgeStyle=orthogonalEdgeStyle;rounded=0;orthogonalLoop=1;jettySize=auto;html=1;exitX=0.75;exitY=1;exitDx=0;exitDy=0;entryX=0.75;entryY=0;entryDx=0;entryDy=0;" edge="1" parent="WIyWlLk6GJQsqaUBKTNV-1" source="4ZBZWQNhmEqmz6yO9Any-4" target="4ZBZWQNhmEqmz6yO9Any-6">
          <mxGeometry relative="1" as="geometry" />
        </mxCell>
        <mxCell id="4ZBZWQNhmEqmz6yO9Any-4" value="高斯滤波去除噪声" style="rounded=1;whiteSpace=wrap;html=1;fontSize=12;glass=0;strokeWidth=1;shadow=0;" vertex="1" parent="WIyWlLk6GJQsqaUBKTNV-1">
          <mxGeometry x="120" y="200" width="120" height="40" as="geometry" />
        </mxCell>
        <mxCell id="4ZBZWQNhmEqmz6yO9Any-33" style="edgeStyle=orthogonalEdgeStyle;rounded=0;orthogonalLoop=1;jettySize=auto;html=1;exitX=1;exitY=0.25;exitDx=0;exitDy=0;entryX=0;entryY=0.25;entryDx=0;entryDy=0;" edge="1" parent="WIyWlLk6GJQsqaUBKTNV-1" source="4ZBZWQNhmEqmz6yO9Any-6" target="4ZBZWQNhmEqmz6yO9Any-8">
          <mxGeometry relative="1" as="geometry">
            <Array as="points">
              <mxPoint x="250" y="270" />
              <mxPoint x="250" y="150" />
            </Array>
          </mxGeometry>
        </mxCell>
        <mxCell id="4ZBZWQNhmEqmz6yO9Any-34" style="edgeStyle=orthogonalEdgeStyle;rounded=0;orthogonalLoop=1;jettySize=auto;html=1;exitX=1;exitY=0.75;exitDx=0;exitDy=0;entryX=0;entryY=0.75;entryDx=0;entryDy=0;" edge="1" parent="WIyWlLk6GJQsqaUBKTNV-1" source="4ZBZWQNhmEqmz6yO9Any-6" target="4ZBZWQNhmEqmz6yO9Any-8">
          <mxGeometry relative="1" as="geometry">
            <Array as="points">
              <mxPoint x="260" y="290" />
              <mxPoint x="260" y="170" />
            </Array>
          </mxGeometry>
        </mxCell>
        <mxCell id="4ZBZWQNhmEqmz6yO9Any-6" value="二值化" style="rounded=1;whiteSpace=wrap;html=1;fontSize=12;glass=0;strokeWidth=1;shadow=0;" vertex="1" parent="WIyWlLk6GJQsqaUBKTNV-1">
          <mxGeometry x="120" y="260" width="120" height="40" as="geometry" />
        </mxCell>
        <mxCell id="4ZBZWQNhmEqmz6yO9Any-35" style="edgeStyle=orthogonalEdgeStyle;rounded=0;orthogonalLoop=1;jettySize=auto;html=1;exitX=0.25;exitY=1;exitDx=0;exitDy=0;entryX=0.25;entryY=0;entryDx=0;entryDy=0;" edge="1" parent="WIyWlLk6GJQsqaUBKTNV-1" source="4ZBZWQNhmEqmz6yO9Any-8" target="4ZBZWQNhmEqmz6yO9Any-10">
          <mxGeometry relative="1" as="geometry" />
        </mxCell>
        <mxCell id="4ZBZWQNhmEqmz6yO9Any-36" style="edgeStyle=orthogonalEdgeStyle;rounded=0;orthogonalLoop=1;jettySize=auto;html=1;exitX=0.75;exitY=1;exitDx=0;exitDy=0;entryX=0.75;entryY=0;entryDx=0;entryDy=0;" edge="1" parent="WIyWlLk6GJQsqaUBKTNV-1" source="4ZBZWQNhmEqmz6yO9Any-8" target="4ZBZWQNhmEqmz6yO9Any-10">
          <mxGeometry relative="1" as="geometry" />
        </mxCell>
        <mxCell id="4ZBZWQNhmEqmz6yO9Any-8" value="形态学闭运算" style="rounded=1;whiteSpace=wrap;html=1;fontSize=12;glass=0;strokeWidth=1;shadow=0;" vertex="1" parent="WIyWlLk6GJQsqaUBKTNV-1">
          <mxGeometry x="270" y="140" width="120" height="40" as="geometry" />
        </mxCell>
        <mxCell id="4ZBZWQNhmEqmz6yO9Any-37" style="edgeStyle=orthogonalEdgeStyle;rounded=0;orthogonalLoop=1;jettySize=auto;html=1;exitX=0.25;exitY=1;exitDx=0;exitDy=0;entryX=0.25;entryY=0;entryDx=0;entryDy=0;" edge="1" parent="WIyWlLk6GJQsqaUBKTNV-1" source="4ZBZWQNhmEqmz6yO9Any-10" target="4ZBZWQNhmEqmz6yO9Any-12">
          <mxGeometry relative="1" as="geometry" />
        </mxCell>
        <mxCell id="4ZBZWQNhmEqmz6yO9Any-38" style="edgeStyle=orthogonalEdgeStyle;rounded=0;orthogonalLoop=1;jettySize=auto;html=1;exitX=0.75;exitY=1;exitDx=0;exitDy=0;entryX=0.75;entryY=0;entryDx=0;entryDy=0;" edge="1" parent="WIyWlLk6GJQsqaUBKTNV-1" source="4ZBZWQNhmEqmz6yO9Any-10" target="4ZBZWQNhmEqmz6yO9Any-12">
          <mxGeometry relative="1" as="geometry" />
        </mxCell>
        <mxCell id="4ZBZWQNhmEqmz6yO9Any-10" value="中值滤波平滑" style="rounded=1;whiteSpace=wrap;html=1;fontSize=12;glass=0;strokeWidth=1;shadow=0;" vertex="1" parent="WIyWlLk6GJQsqaUBKTNV-1">
          <mxGeometry x="270" y="200" width="120" height="40" as="geometry" />
        </mxCell>
        <mxCell id="4ZBZWQNhmEqmz6yO9Any-40" style="edgeStyle=orthogonalEdgeStyle;rounded=0;orthogonalLoop=1;jettySize=auto;html=1;exitX=0.25;exitY=1;exitDx=0;exitDy=0;entryX=0.25;entryY=0;entryDx=0;entryDy=0;" edge="1" parent="WIyWlLk6GJQsqaUBKTNV-1" source="4ZBZWQNhmEqmz6yO9Any-12" target="4ZBZWQNhmEqmz6yO9Any-39">
          <mxGeometry relative="1" as="geometry">
            <Array as="points">
              <mxPoint x="300" y="310" />
              <mxPoint x="220" y="310" />
            </Array>
          </mxGeometry>
        </mxCell>
        <mxCell id="4ZBZWQNhmEqmz6yO9Any-41" style="edgeStyle=orthogonalEdgeStyle;rounded=0;orthogonalLoop=1;jettySize=auto;html=1;exitX=0.75;exitY=1;exitDx=0;exitDy=0;entryX=0.75;entryY=0;entryDx=0;entryDy=0;" edge="1" parent="WIyWlLk6GJQsqaUBKTNV-1" source="4ZBZWQNhmEqmz6yO9Any-12" target="4ZBZWQNhmEqmz6yO9Any-39">
          <mxGeometry relative="1" as="geometry" />
        </mxCell>
        <mxCell id="4ZBZWQNhmEqmz6yO9Any-12" value="寻找边缘" style="rounded=1;whiteSpace=wrap;html=1;fontSize=12;glass=0;strokeWidth=1;shadow=0;" vertex="1" parent="WIyWlLk6GJQsqaUBKTNV-1">
          <mxGeometry x="270" y="260" width="120" height="40" as="geometry" />
        </mxCell>
        <mxCell id="4ZBZWQNhmEqmz6yO9Any-27" style="edgeStyle=orthogonalEdgeStyle;rounded=0;orthogonalLoop=1;jettySize=auto;html=1;exitX=0.25;exitY=1;exitDx=0;exitDy=0;entryX=0.75;entryY=0;entryDx=0;entryDy=0;" edge="1" parent="WIyWlLk6GJQsqaUBKTNV-1" source="4ZBZWQNhmEqmz6yO9Any-18" target="4ZBZWQNhmEqmz6yO9Any-2">
          <mxGeometry relative="1" as="geometry" />
        </mxCell>
        <mxCell id="4ZBZWQNhmEqmz6yO9Any-18" value="读取待测瓶瓶身图像" style="rounded=1;whiteSpace=wrap;html=1;fontSize=12;glass=0;strokeWidth=1;shadow=0;" vertex="1" parent="WIyWlLk6GJQsqaUBKTNV-1">
          <mxGeometry x="180" y="80" width="120" height="40" as="geometry" />
        </mxCell>
        <mxCell id="4ZBZWQNhmEqmz6yO9Any-21" style="edgeStyle=orthogonalEdgeStyle;rounded=0;orthogonalLoop=1;jettySize=auto;html=1;exitX=0.5;exitY=1;exitDx=0;exitDy=0;entryX=0.5;entryY=0;entryDx=0;entryDy=0;" edge="1" parent="WIyWlLk6GJQsqaUBKTNV-1" source="4ZBZWQNhmEqmz6yO9Any-20" target="4ZBZWQNhmEqmz6yO9Any-18">
          <mxGeometry relative="1" as="geometry" />
        </mxCell>
        <mxCell id="4ZBZWQNhmEqmz6yO9Any-20" value="检测" style="shape=parallelogram;html=1;strokeWidth=2;perimeter=parallelogramPerimeter;whiteSpace=wrap;rounded=1;arcSize=12;size=0.23;" vertex="1" parent="WIyWlLk6GJQsqaUBKTNV-1">
          <mxGeometry x="200" y="20" width="80" height="40" as="geometry" />
        </mxCell>
        <mxCell id="4ZBZWQNhmEqmz6yO9Any-43" style="edgeStyle=orthogonalEdgeStyle;rounded=0;orthogonalLoop=1;jettySize=auto;html=1;exitX=0.5;exitY=1;exitDx=0;exitDy=0;entryX=0.5;entryY=0;entryDx=0;entryDy=0;" edge="1" parent="WIyWlLk6GJQsqaUBKTNV-1" source="4ZBZWQNhmEqmz6yO9Any-39" target="4ZBZWQNhmEqmz6yO9Any-42">
          <mxGeometry relative="1" as="geometry" />
        </mxCell>
        <mxCell id="4ZBZWQNhmEqmz6yO9Any-39" value="计算二者Hu矩的距离" style="rounded=1;whiteSpace=wrap;html=1;fontSize=12;glass=0;strokeWidth=1;shadow=0;" vertex="1" parent="WIyWlLk6GJQsqaUBKTNV-1">
          <mxGeometry x="190" y="330" width="120" height="40" as="geometry" />
        </mxCell>
        <mxCell id="4ZBZWQNhmEqmz6yO9Any-45" value="Yes" style="edgeStyle=orthogonalEdgeStyle;rounded=0;orthogonalLoop=1;jettySize=auto;html=1;exitX=0;exitY=0.5;exitDx=0;exitDy=0;" edge="1" parent="WIyWlLk6GJQsqaUBKTNV-1" source="4ZBZWQNhmEqmz6yO9Any-42">
          <mxGeometry relative="1" as="geometry">
            <mxPoint x="160" y="415" as="targetPoint" />
          </mxGeometry>
        </mxCell>
        <mxCell id="4ZBZWQNhmEqmz6yO9Any-50" value="No" style="edgeStyle=orthogonalEdgeStyle;rounded=0;orthogonalLoop=1;jettySize=auto;html=1;exitX=1;exitY=0.5;exitDx=0;exitDy=0;entryX=0;entryY=0.5;entryDx=0;entryDy=0;" edge="1" parent="WIyWlLk6GJQsqaUBKTNV-1" source="4ZBZWQNhmEqmz6yO9Any-42" target="4ZBZWQNhmEqmz6yO9Any-49">
          <mxGeometry relative="1" as="geometry" />
        </mxCell>
        <mxCell id="4ZBZWQNhmEqmz6yO9Any-42" value="距离&amp;lt;阈值？" style="rhombus;whiteSpace=wrap;html=1;" vertex="1" parent="WIyWlLk6GJQsqaUBKTNV-1">
          <mxGeometry x="205" y="390" width="90" height="50" as="geometry" />
        </mxCell>
        <mxCell id="4ZBZWQNhmEqmz6yO9Any-46" value="合格" style="rounded=1;whiteSpace=wrap;html=1;fontSize=12;glass=0;strokeWidth=1;shadow=0;" vertex="1" parent="WIyWlLk6GJQsqaUBKTNV-1">
          <mxGeometry x="40" y="395" width="120" height="40" as="geometry" />
        </mxCell>
        <mxCell id="4ZBZWQNhmEqmz6yO9Any-49" value="不合格" style="rounded=1;whiteSpace=wrap;html=1;fontSize=12;glass=0;strokeWidth=1;shadow=0;" vertex="1" parent="WIyWlLk6GJQsqaUBKTNV-1">
          <mxGeometry x="340" y="395" width="120" height="40" as="geometry" />
        </mxCell>
      </root>
    </mxGraphModel>
  </diagram>
</mxfile>
